solid WindPointerTipFinal
facet normal 1.0413688431914426e-12 0.0 1.0
  outer loop
    vertex 9.883040637739736 0.0 9.883040637739645
    vertex 7.883040637739737 1.9999999999999998 9.883040637741729
    vertex -0.11695936226026295 0.0 9.88304063775006
  endloop
endfacet
facet normal 1.0413688431914426e-12 0.0 1.0
  outer loop
    vertex 7.883040637739737 1.9999999999999998 9.883040637741729
    vertex 9.883040637739736 0.0 9.883040637739645
    vertex 9.883040637739736 10.0 9.883040637739645
  endloop
endfacet
facet normal 1.0413688431914426e-12 0.0 1.0
  outer loop
    vertex 7.883040637739737 1.9999999999999998 9.883040637741729
    vertex 9.883040637739736 10.0 9.883040637739645
    vertex 7.883040637739737 7.999999999999999 9.883040637741729
  endloop
endfacet
facet normal 1.0413688431914426e-12 0.0 1.0
  outer loop
    vertex 7.883040637739737 7.999999999999999 9.883040637741729
    vertex 9.883040637739736 10.0 9.883040637739645
    vertex 1.883040637739737 7.999999999999999 9.883040637747976
  endloop
endfacet
facet normal 1.0413688431914426e-12 0.0 1.0
  outer loop
    vertex -0.11695936226026295 0.0 9.88304063775006
    vertex 1.883040637739737 1.9999999999999998 9.883040637747976
    vertex -0.11695936226026295 10.0 9.88304063775006
  endloop
endfacet
facet normal 1.0413688431914426e-12 0.0 1.0
  outer loop
    vertex 1.883040637739737 1.9999999999999998 9.883040637747976
    vertex -0.11695936226026295 0.0 9.88304063775006
    vertex 7.883040637739737 1.9999999999999998 9.883040637741729
  endloop
endfacet
facet normal 1.0413688431914426e-12 0.0 1.0
  outer loop
    vertex -0.11695936226026295 10.0 9.88304063775006
    vertex 1.883040637739737 1.9999999999999998 9.883040637747976
    vertex 1.883040637739737 7.999999999999999 9.883040637747976
  endloop
endfacet
facet normal 1.0413688431914426e-12 0.0 1.0
  outer loop
    vertex -0.11695936226026295 10.0 9.88304063775006
    vertex 1.883040637739737 7.999999999999999 9.883040637747976
    vertex 9.883040637739736 10.0 9.883040637739645
  endloop
endfacet
facet normal 1.0 0.0 -1.0413688431914426e-12
  outer loop
    vertex 1.8830406377293234 1.9999999999999998 -0.1169593622520225
    vertex 1.883040637739737 7.999999999999999 9.883040637747976
    vertex 1.883040637739737 1.9999999999999998 9.883040637747976
  endloop
endfacet
facet normal 1.0 0.0 -1.0413688431914426e-12
  outer loop
    vertex 1.883040637739737 7.999999999999999 9.883040637747976
    vertex 1.8830406377293234 1.9999999999999998 -0.1169593622520225
    vertex 1.8830406377293234 7.999999999999999 -0.1169593622520225
  endloop
endfacet
facet normal 0.0 1.0 0.0
  outer loop
    vertex 7.883040637739737 1.9999999999999998 9.883040637741729
    vertex 1.8830406377293234 1.9999999999999998 -0.1169593622520225
    vertex 1.883040637739737 1.9999999999999998 9.883040637747976
  endloop
endfacet
facet normal 0.0 1.0 0.0
  outer loop
    vertex 1.8830406377293234 1.9999999999999998 -0.1169593622520225
    vertex 7.883040637739737 1.9999999999999998 9.883040637741729
    vertex 7.883040637729323 1.9999999999999998 -0.11695936225827154
  endloop
endfacet
facet normal -2.902334305142413e-13 -0.9603751886291728 -0.27871041793496115
  outer loop
    vertex 9.883040637739736 10.0 9.883040637739645
    vertex 4.883040637760565 4.195801365239585 29.883040637744855
    vertex -0.11695936226026295 10.0 9.88304063775006
  endloop
endfacet
facet normal 0.9701425001450793 0.0 -0.24253562503734324
  outer loop
    vertex -0.11695936226026295 10.0 9.88304063775006
    vertex 4.883040637760565 4.195801365239585 29.883040637744855
    vertex -0.11695936226026295 0.0 9.88304063775006
  endloop
endfacet
facet normal -2.1382136544061066e-13 0.978694800840018 -0.20532044907587158
  outer loop
    vertex 9.883040637739736 0.0 9.883040637739645
    vertex -0.11695936226026295 0.0 9.88304063775006
    vertex 4.883040637760565 4.195801365239585 29.883040637744855
  endloop
endfacet
facet normal 1.0413688431914426e-12 0.0 1.0
  outer loop
    vertex 7.883040637729323 1.9999999999999998 -0.11695936225827154
    vertex 5.224917546933663 3.0294365833719312 -0.11695936225550234
    vertex 1.8830406377293234 1.9999999999999998 -0.1169593622520225
  endloop
endfacet
facet normal 1.0413688431914426e-12 0.0 1.0
  outer loop
    vertex 5.224917546933663 3.0294365833719312 -0.11695936225550234
    vertex 7.883040637729323 1.9999999999999998 -0.11695936225827154
    vertex 5.723287715547316 3.185066158721392 -0.11695936225602122
  endloop
endfacet
facet normal 1.0413688431914426e-12 0.0 1.0
  outer loop
    vertex 5.723287715547316 3.185066158721392 -0.11695936225602122
    vertex 7.883040637729323 1.9999999999999998 -0.11695936225827154
    vertex 6.164396434381621 3.464380476034004 -0.11695936225648368
  endloop
endfacet
facet normal 1.0413688431914426e-12 0.0 1.0
  outer loop
    vertex 6.164396434381621 3.464380476034004 -0.11695936225648368
    vertex 7.883040637729323 1.9999999999999998 -0.11695936225827154
    vertex 6.518182873214649 3.848344726173647 -0.11695936225685027
  endloop
endfacet
facet normal 1.0413688431914426e-12 0.0 1.0
  outer loop
    vertex 6.518182873214649 3.848344726173647 -0.11695936225685027
    vertex 7.883040637729323 1.9999999999999998 -0.11695936225827154
    vertex 6.760537070899658 4.310792380024231 -0.11695936225710407
  endloop
endfacet
facet normal 1.0413688431914426e-12 0.0 1.0
  outer loop
    vertex 6.760537070899658 4.310792380024231 -0.11695936225710407
    vertex 7.883040637729323 1.9999999999999998 -0.11695936225827154
    vertex 7.883040637729323 7.999999999999999 -0.11695936225827154
  endloop
endfacet
facet normal 1.0413688431914426e-12 0.0 1.0
  outer loop
    vertex 1.8830406377293234 1.9999999999999998 -0.1169593622520225
    vertex 5.224917546933663 3.0294365833719312 -0.11695936225550234
    vertex 4.703249031936041 3.0080976483556547 -0.1169593622549609
  endloop
endfacet
facet normal 1.0413688431914426e-12 0.0 1.0
  outer loop
    vertex 6.760537070899658 4.310792380024231 -0.11695936225710407
    vertex 7.883040637729323 7.999999999999999 -0.11695936225827154
    vertex 6.874942989373667 4.820208394206717 -0.11695936225722252
  endloop
endfacet
facet normal 1.0413688431914426e-12 0.0 1.0
  outer loop
    vertex 6.874942989373667 4.820208394206717 -0.11695936225722252
    vertex 7.883040637729323 7.999999999999999 -0.11695936225827154
    vertex 6.853604054357391 5.341876909204339 -0.11695936225719995
  endloop
endfacet
facet normal 1.0413688431914426e-12 0.0 1.0
  outer loop
    vertex 6.853604054357391 5.341876909204339 -0.11695936225719995
    vertex 7.883040637729323 7.999999999999999 -0.11695936225827154
    vertex 6.697974479007931 5.840247077817992 -0.1169593622570364
  endloop
endfacet
facet normal 1.0413688431914426e-12 0.0 1.0
  outer loop
    vertex 6.697974479007931 5.840247077817992 -0.1169593622570364
    vertex 7.883040637729323 7.999999999999999 -0.11695936225827154
    vertex 6.418660161695319 6.281355796652298 -0.11695936225674876
  endloop
endfacet
facet normal 1.0413688431914426e-12 0.0 1.0
  outer loop
    vertex 6.418660161695319 6.281355796652298 -0.11695936225674876
    vertex 7.883040637729323 7.999999999999999 -0.11695936225827154
    vertex 6.0346959115556755 6.635142235485326 -0.11695936225634833
  endloop
endfacet
facet normal 1.0413688431914426e-12 0.0 1.0
  outer loop
    vertex 6.0346959115556755 6.635142235485326 -0.11695936225634833
    vertex 7.883040637729323 7.999999999999999 -0.11695936225827154
    vertex 5.572248257705093 6.877496433170337 -0.11695936225586329
  endloop
endfacet
facet normal 1.0413688431914426e-12 0.0 1.0
  outer loop
    vertex 5.572248257705093 6.877496433170337 -0.11695936225586329
    vertex 7.883040637729323 7.999999999999999 -0.11695936225827154
    vertex 5.062832243522606 6.991902351644345 -0.11695936225533314
  endloop
endfacet
facet normal 1.0413688431914426e-12 0.0 1.0
  outer loop
    vertex 1.8830406377293234 1.9999999999999998 -0.1169593622520225
    vertex 2.912477221101254 4.658123090795659 -0.11695936225309408
    vertex 1.8830406377293234 7.999999999999999 -0.1169593622520225
  endloop
endfacet
facet normal 1.0413688431914426e-12 0.0 1.0
  outer loop
    vertex 2.912477221101254 4.658123090795659 -0.11695936225309408
    vertex 1.8830406377293234 1.9999999999999998 -0.1169593622520225
    vertex 3.0681067964507154 4.159752922182007 -0.11695936225325765
  endloop
endfacet
facet normal 1.0413688431914426e-12 0.0 1.0
  outer loop
    vertex 3.0681067964507154 4.159752922182007 -0.11695936225325765
    vertex 1.8830406377293234 1.9999999999999998 -0.1169593622520225
    vertex 3.347421113763326 3.718644203347701 -0.11695936225355091
  endloop
endfacet
facet normal 1.0413688431914426e-12 0.0 1.0
  outer loop
    vertex 3.347421113763326 3.718644203347701 -0.11695936225355091
    vertex 1.8830406377293234 1.9999999999999998 -0.1169593622520225
    vertex 3.731385363902971 3.364857764514674 -0.11695936225395136
  endloop
endfacet
facet normal 1.0413688431914426e-12 0.0 1.0
  outer loop
    vertex 3.731385363902971 3.364857764514674 -0.11695936225395136
    vertex 1.8830406377293234 1.9999999999999998 -0.1169593622520225
    vertex 4.193833017753553 3.1225035668296632 -0.11695936225443075
  endloop
endfacet
facet normal 1.0413688431914426e-12 0.0 1.0
  outer loop
    vertex 4.193833017753553 3.1225035668296632 -0.11695936225443075
    vertex 1.8830406377293234 1.9999999999999998 -0.1169593622520225
    vertex 4.703249031936041 3.0080976483556547 -0.1169593622549609
  endloop
endfacet
facet normal 1.0413688431914426e-12 0.0 1.0
  outer loop
    vertex 1.8830406377293234 7.999999999999999 -0.1169593622520225
    vertex 2.912477221101254 4.658123090795659 -0.11695936225309408
    vertex 2.8911382860849772 5.179791605793282 -0.11695936225307152
  endloop
endfacet
facet normal 1.0413688431914426e-12 0.0 1.0
  outer loop
    vertex 1.8830406377293234 7.999999999999999 -0.1169593622520225
    vertex 2.8911382860849772 5.179791605793282 -0.11695936225307152
    vertex 3.005544204558986 5.689207619975769 -0.1169593622531956
  endloop
endfacet
facet normal 1.0413688431914426e-12 0.0 1.0
  outer loop
    vertex 1.8830406377293234 7.999999999999999 -0.1169593622520225
    vertex 3.005544204558986 5.689207619975769 -0.1169593622531956
    vertex 3.247898402243996 6.151655273826352 -0.11695936225344376
  endloop
endfacet
facet normal 1.0413688431914426e-12 0.0 1.0
  outer loop
    vertex 1.8830406377293234 7.999999999999999 -0.1169593622520225
    vertex 3.247898402243996 6.151655273826352 -0.11695936225344376
    vertex 3.6016848410770246 6.5356195239659955 -0.116959362253816
  endloop
endfacet
facet normal 1.0413688431914426e-12 0.0 1.0
  outer loop
    vertex 1.8830406377293234 7.999999999999999 -0.1169593622520225
    vertex 3.6016848410770246 6.5356195239659955 -0.116959362253816
    vertex 4.04279355991133 6.8149338412786085 -0.11695936225427284
  endloop
endfacet
facet normal 1.0413688431914426e-12 0.0 1.0
  outer loop
    vertex 1.8830406377293234 7.999999999999999 -0.1169593622520225
    vertex 4.04279355991133 6.8149338412786085 -0.11695936225427284
    vertex 4.541163728524983 6.970563416628069 -0.1169593622547917
  endloop
endfacet
facet normal 1.0413688431914426e-12 0.0 1.0
  outer loop
    vertex 1.8830406377293234 7.999999999999999 -0.1169593622520225
    vertex 4.541163728524983 6.970563416628069 -0.1169593622547917
    vertex 5.062832243522606 6.991902351644345 -0.11695936225533314
  endloop
endfacet
facet normal 1.0413688431914426e-12 0.0 1.0
  outer loop
    vertex 1.8830406377293234 7.999999999999999 -0.1169593622520225
    vertex 5.062832243522606 6.991902351644345 -0.11695936225533314
    vertex 7.883040637729323 7.999999999999999 -0.11695936225827154
  endloop
endfacet
facet normal -0.9701425001455845 -3.9402445746675657e-17 -0.2425356250353227
  outer loop
    vertex 9.883040637739736 0.0 9.883040637739645
    vertex 4.883040637760565 4.195801365239585 29.883040637744855
    vertex 9.883040637739736 10.0 9.883040637739645
  endloop
endfacet
facet normal 1.0413688431914426e-12 0.0 1.0
  outer loop
    vertex 5.22491754694616 3.0294365833719312 11.883040637744495
    vertex 4.19383301776605 3.1225035668296632 11.88304063774557
    vertex 4.703249031948538 3.0080976483556547 11.88304063774504
  endloop
endfacet
facet normal 1.0413688431914426e-12 0.0 1.0
  outer loop
    vertex 4.19383301776605 3.1225035668296632 11.88304063774557
    vertex 5.22491754694616 3.0294365833719312 11.883040637744495
    vertex 5.723287715559812 3.185066158721392 11.883040637743976
  endloop
endfacet
facet normal 1.0413688431914426e-12 0.0 1.0
  outer loop
    vertex 4.19383301776605 3.1225035668296632 11.88304063774557
    vertex 5.723287715559812 3.185066158721392 11.883040637743976
    vertex 3.7313853639154675 3.364857764514674 11.883040637746053
  endloop
endfacet
facet normal 1.0413688431914426e-12 0.0 1.0
  outer loop
    vertex 3.7313853639154675 3.364857764514674 11.883040637746053
    vertex 5.723287715559812 3.185066158721392 11.883040637743976
    vertex 6.164396434394118 3.464380476034004 11.883040637743516
  endloop
endfacet
facet normal 1.0413688431914426e-12 0.0 1.0
  outer loop
    vertex 3.7313853639154675 3.364857764514674 11.883040637746053
    vertex 6.164396434394118 3.464380476034004 11.883040637743516
    vertex 3.3474211137758227 3.718644203347701 11.883040637746452
  endloop
endfacet
facet normal 1.0413688431914426e-12 0.0 1.0
  outer loop
    vertex 3.3474211137758227 3.718644203347701 11.883040637746452
    vertex 6.164396434394118 3.464380476034004 11.883040637743516
    vertex 6.518182873227146 3.848344726173647 11.88304063774315
  endloop
endfacet
facet normal 1.0413688431914426e-12 0.0 1.0
  outer loop
    vertex 3.3474211137758227 3.718644203347701 11.883040637746452
    vertex 6.518182873227146 3.848344726173647 11.88304063774315
    vertex 3.068106796463212 4.159752922182007 11.883040637746744
  endloop
endfacet
facet normal 1.0413688431914426e-12 0.0 1.0
  outer loop
    vertex 3.068106796463212 4.159752922182007 11.883040637746744
    vertex 6.518182873227146 3.848344726173647 11.88304063774315
    vertex 6.760537070912155 4.310792380024231 11.883040637742896
  endloop
endfacet
facet normal 1.0413688431914426e-12 0.0 1.0
  outer loop
    vertex 3.068106796463212 4.159752922182007 11.883040637746744
    vertex 6.760537070912155 4.310792380024231 11.883040637742896
    vertex 2.912477221113751 4.658123090795659 11.883040637746904
  endloop
endfacet
facet normal 1.0413688431914426e-12 0.0 1.0
  outer loop
    vertex 2.912477221113751 4.658123090795659 11.883040637746904
    vertex 6.760537070912155 4.310792380024231 11.883040637742896
    vertex 6.874942989386164 4.820208394206717 11.883040637742779
  endloop
endfacet
facet normal 1.0413688431914426e-12 0.0 1.0
  outer loop
    vertex 2.912477221113751 4.658123090795659 11.883040637746904
    vertex 6.874942989386164 4.820208394206717 11.883040637742779
    vertex 2.891138286097474 5.179791605793282 11.883040637746927
  endloop
endfacet
facet normal 1.0413688431914426e-12 0.0 1.0
  outer loop
    vertex 2.891138286097474 5.179791605793282 11.883040637746927
    vertex 6.874942989386164 4.820208394206717 11.883040637742779
    vertex 6.853604054369888 5.341876909204339 11.8830406377428
  endloop
endfacet
facet normal 1.0413688431914426e-12 0.0 1.0
  outer loop
    vertex 2.891138286097474 5.179791605793282 11.883040637746927
    vertex 6.853604054369888 5.341876909204339 11.8830406377428
    vertex 3.005544204571483 5.689207619975769 11.883040637746808
  endloop
endfacet
facet normal 1.0413688431914426e-12 0.0 1.0
  outer loop
    vertex 3.005544204571483 5.689207619975769 11.883040637746808
    vertex 6.853604054369888 5.341876909204339 11.8830406377428
    vertex 6.697974479020428 5.840247077817992 11.883040637742962
  endloop
endfacet
facet normal 1.0413688431914426e-12 0.0 1.0
  outer loop
    vertex 3.005544204571483 5.689207619975769 11.883040637746808
    vertex 6.697974479020428 5.840247077817992 11.883040637742962
    vertex 3.2478984022564927 6.151655273826352 11.883040637746554
  endloop
endfacet
facet normal 1.0413688431914426e-12 0.0 1.0
  outer loop
    vertex 3.2478984022564927 6.151655273826352 11.883040637746554
    vertex 6.697974479020428 5.840247077817992 11.883040637742962
    vertex 6.418660161707816 6.281355796652298 11.883040637743251
  endloop
endfacet
facet normal 1.0413688431914426e-12 0.0 1.0
  outer loop
    vertex 3.2478984022564927 6.151655273826352 11.883040637746554
    vertex 6.418660161707816 6.281355796652298 11.883040637743251
    vertex 3.6016848410895212 6.5356195239659955 11.883040637746188
  endloop
endfacet
facet normal 1.0413688431914426e-12 0.0 1.0
  outer loop
    vertex 3.6016848410895212 6.5356195239659955 11.883040637746188
    vertex 6.418660161707816 6.281355796652298 11.883040637743251
    vertex 6.034695911568172 6.635142235485326 11.883040637743653
  endloop
endfacet
facet normal 1.0413688431914426e-12 0.0 1.0
  outer loop
    vertex 3.6016848410895212 6.5356195239659955 11.883040637746188
    vertex 6.034695911568172 6.635142235485326 11.883040637743653
    vertex 4.042793559923827 6.8149338412786085 11.883040637745728
  endloop
endfacet
facet normal 1.0413688431914426e-12 0.0 1.0
  outer loop
    vertex 4.042793559923827 6.8149338412786085 11.883040637745728
    vertex 6.034695911568172 6.635142235485326 11.883040637743653
    vertex 5.57224825771759 6.877496433170337 11.883040637744134
  endloop
endfacet
facet normal 1.0413688431914426e-12 0.0 1.0
  outer loop
    vertex 4.042793559923827 6.8149338412786085 11.883040637745728
    vertex 5.57224825771759 6.877496433170337 11.883040637744134
    vertex 4.541163728537479 6.970563416628069 11.883040637745209
  endloop
endfacet
facet normal 1.0413688431914426e-12 0.0 1.0
  outer loop
    vertex 4.541163728537479 6.970563416628069 11.883040637745209
    vertex 5.57224825771759 6.877496433170337 11.883040637744134
    vertex 5.0628322435351025 6.991902351644345 11.883040637744665
  endloop
endfacet
facet normal -0.9756969185994346 0.21912444645809934 1.0160603714273484e-12
  outer loop
    vertex 3.005544204558986 5.689207619975769 -0.1169593622531956
    vertex 2.891138286097474 5.179791605793282 11.883040637746927
    vertex 3.005544204571483 5.689207619975769 11.883040637746808
  endloop
endfacet
facet normal -0.9756969185994346 0.21912444645809934 1.0160603714273484e-12
  outer loop
    vertex 2.891138286097474 5.179791605793282 11.883040637746927
    vertex 3.005544204558986 5.689207619975769 -0.1169593622531956
    vertex 2.8911382860849772 5.179791605793282 -0.11695936225307152
  endloop
endfacet
facet normal 0.21912444645809903 0.9756969185994346 -2.281893713230358e-13
  outer loop
    vertex 5.57224825771759 6.877496433170337 11.883040637744134
    vertex 5.062832243522606 6.991902351644345 -0.11695936225533314
    vertex 5.0628322435351025 6.991902351644345 11.883040637744665
  endloop
endfacet
facet normal 0.21912444645809903 0.9756969185994346 -2.281893713230358e-13
  outer loop
    vertex 5.062832243522606 6.991902351644345 -0.11695936225533314
    vertex 5.57224825771759 6.877496433170337 11.883040637744134
    vertex 5.572248257705093 6.877496433170337 -0.11695936225586329
  endloop
endfacet
facet normal 0.9545405411303579 0.2980811220767987 -9.940287790962546e-13
  outer loop
    vertex 6.853604054357391 5.341876909204339 -0.11695936225719995
    vertex 6.697974479020428 5.840247077817992 11.883040637742962
    vertex 6.853604054369888 5.341876909204339 11.8830406377428
  endloop
endfacet
facet normal 0.9545405411303579 0.2980811220767987 -9.940287790962546e-13
  outer loop
    vertex 6.697974479020428 5.840247077817992 11.883040637742962
    vertex 6.853604054357391 5.341876909204339 -0.11695936225719995
    vertex 6.697974479007931 5.840247077817992 -0.1169593622570364
  endloop
endfacet
facet normal -0.4641869067865526 -0.8857372723149527 4.833897821449263e-13
  outer loop
    vertex 4.193833017753553 3.1225035668296632 -0.11695936225443075
    vertex 3.7313853639154675 3.364857764514674 11.883040637746053
    vertex 3.731385363902971 3.364857764514674 -0.11695936225395136
  endloop
endfacet
facet normal -0.4641869067865526 -0.8857372723149527 4.833897821449263e-13
  outer loop
    vertex 3.7313853639154675 3.364857764514674 11.883040637746053
    vertex 4.193833017753553 3.1225035668296632 -0.11695936225443075
    vertex 4.19383301776605 3.1225035668296632 11.88304063774557
  endloop
endfacet
facet normal 0.0 -1.0 0.0
  outer loop
    vertex 7.883040637729323 7.999999999999999 -0.11695936225827154
    vertex 1.883040637739737 7.999999999999999 9.883040637747976
    vertex 1.8830406377293234 7.999999999999999 -0.1169593622520225
  endloop
endfacet
facet normal 0.0 -1.0 0.0
  outer loop
    vertex 1.883040637739737 7.999999999999999 9.883040637747976
    vertex 7.883040637729323 7.999999999999999 -0.11695936225827154
    vertex 7.883040637739737 7.999999999999999 9.883040637741729
  endloop
endfacet
facet normal 0.464186906786552 0.8857372723149528 -4.833897821449257e-13
  outer loop
    vertex 6.034695911568172 6.635142235485326 11.883040637743653
    vertex 5.572248257705093 6.877496433170337 -0.11695936225586329
    vertex 5.57224825771759 6.877496433170337 11.883040637744134
  endloop
endfacet
facet normal 0.464186906786552 0.8857372723149528 -4.833897821449257e-13
  outer loop
    vertex 5.572248257705093 6.877496433170337 -0.11695936225586329
    vertex 6.034695911568172 6.635142235485326 11.883040637743653
    vertex 6.0346959115556755 6.635142235485326 -0.11695936225634833
  endloop
endfacet
facet normal 0.8448662895387493 0.5349775255102092 -8.798174305884139e-13
  outer loop
    vertex 6.697974479007931 5.840247077817992 -0.1169593622570364
    vertex 6.418660161707816 6.281355796652298 11.883040637743251
    vertex 6.697974479020428 5.840247077817992 11.883040637742962
  endloop
endfacet
facet normal 0.8448662895387493 0.5349775255102092 -8.798174305884139e-13
  outer loop
    vertex 6.418660161707816 6.281355796652298 11.883040637743251
    vertex 6.697974479007931 5.840247077817992 -0.1169593622570364
    vertex 6.418660161695319 6.281355796652298 -0.11695936225674876
  endloop
endfacet
facet normal 0.8857372723149546 -0.46418690678654884 -9.22379198642168e-13
  outer loop
    vertex 6.518182873214649 3.848344726173647 -0.11695936225685027
    vertex 6.760537070912155 4.310792380024231 11.883040637742896
    vertex 6.518182873227146 3.848344726173647 11.88304063774315
  endloop
endfacet
facet normal 0.8857372723149546 -0.46418690678654884 -9.22379198642168e-13
  outer loop
    vertex 6.760537070912155 4.310792380024231 11.883040637742896
    vertex 6.518182873214649 3.848344726173647 -0.11695936225685027
    vertex 6.760537070899658 4.310792380024231 -0.11695936225710407
  endloop
endfacet
facet normal -0.9991644322967604 -0.0408709827762039 1.0404987090189119e-12
  outer loop
    vertex 2.8911382860849772 5.179791605793282 -0.11695936225307152
    vertex 2.912477221113751 4.658123090795659 11.883040637746904
    vertex 2.891138286097474 5.179791605793282 11.883040637746927
  endloop
endfacet
facet normal -0.9991644322967604 -0.0408709827762039 1.0404987090189119e-12
  outer loop
    vertex 2.912477221113751 4.658123090795659 11.883040637746904
    vertex 2.8911382860849772 5.179791605793282 -0.11695936225307152
    vertex 2.912477221101254 4.658123090795659 -0.11695936225309408
  endloop
endfacet
facet normal -0.8857372723149538 0.4641869067865505 9.223791986421672e-13
  outer loop
    vertex 3.247898402243996 6.151655273826352 -0.11695936225344376
    vertex 3.005544204571483 5.689207619975769 11.883040637746808
    vertex 3.2478984022564927 6.151655273826352 11.883040637746554
  endloop
endfacet
facet normal -0.8857372723149538 0.4641869067865505 9.223791986421672e-13
  outer loop
    vertex 3.005544204571483 5.689207619975769 11.883040637746808
    vertex 3.247898402243996 6.151655273826352 -0.11695936225344376
    vertex 3.005544204558986 5.689207619975769 -0.1169593622531956
  endloop
endfacet
facet normal -0.0408709827762026 0.9991644322967604 4.256176805375148e-14
  outer loop
    vertex 5.0628322435351025 6.991902351644345 11.883040637744665
    vertex 4.541163728524983 6.970563416628069 -0.1169593622547917
    vertex 4.541163728537479 6.970563416628069 11.883040637745209
  endloop
endfacet
facet normal -0.0408709827762026 0.9991644322967604 4.256176805375148e-14
  outer loop
    vertex 4.541163728524983 6.970563416628069 -0.1169593622547917
    vertex 5.0628322435351025 6.991902351644345 11.883040637744665
    vertex 5.062832243522606 6.991902351644345 -0.11695936225533314
  endloop
endfacet
facet normal -0.21912444645809812 -0.9756969185994349 2.2818937132303486e-13
  outer loop
    vertex 4.703249031936041 3.0080976483556547 -0.1169593622549609
    vertex 4.19383301776605 3.1225035668296632 11.88304063774557
    vertex 4.193833017753553 3.1225035668296632 -0.11695936225443075
  endloop
endfacet
facet normal -0.21912444645809812 -0.9756969185994349 2.2818937132303486e-13
  outer loop
    vertex 4.19383301776605 3.1225035668296632 11.88304063774557
    vertex 4.703249031936041 3.0080976483556547 -0.1169593622549609
    vertex 4.703249031948538 3.0080976483556547 11.88304063774504
  endloop
endfacet
facet normal 0.6776157965226344 0.7354160946722582 -7.056479781530237e-13
  outer loop
    vertex 6.418660161707816 6.281355796652298 11.883040637743251
    vertex 6.0346959115556755 6.635142235485326 -0.11695936225634833
    vertex 6.034695911568172 6.635142235485326 11.883040637743653
  endloop
endfacet
facet normal 0.6776157965226344 0.7354160946722582 -7.056479781530237e-13
  outer loop
    vertex 6.0346959115556755 6.635142235485326 -0.11695936225634833
    vertex 6.418660161707816 6.281355796652298 11.883040637743251
    vertex 6.418660161695319 6.281355796652298 -0.11695936225674876
  endloop
endfacet
facet normal -1.0 0.0 1.0413688431914426e-12
  outer loop
    vertex 7.883040637729323 7.999999999999999 -0.11695936225827154
    vertex 7.883040637739737 1.9999999999999998 9.883040637741729
    vertex 7.883040637739737 7.999999999999999 9.883040637741729
  endloop
endfacet
facet normal -1.0 0.0 1.0413688431914426e-12
  outer loop
    vertex 7.883040637739737 1.9999999999999998 9.883040637741729
    vertex 7.883040637729323 7.999999999999999 -0.11695936225827154
    vertex 7.883040637729323 1.9999999999999998 -0.11695936225827154
  endloop
endfacet
facet normal -0.5349775255102092 0.8448662895387493 5.57108926873987e-13
  outer loop
    vertex 4.042793559923827 6.8149338412786085 11.883040637745728
    vertex 3.6016848410770246 6.5356195239659955 -0.116959362253816
    vertex 3.6016848410895212 6.5356195239659955 11.883040637746188
  endloop
endfacet
facet normal -0.5349775255102092 0.8448662895387493 5.57108926873987e-13
  outer loop
    vertex 3.6016848410770246 6.5356195239659955 -0.116959362253816
    vertex 4.042793559923827 6.8149338412786085 11.883040637745728
    vertex 4.04279355991133 6.8149338412786085 -0.11695936225427284
  endloop
endfacet
facet normal 0.9756969185994346 -0.21912444645809934 -1.0160603714273484e-12
  outer loop
    vertex 6.760537070899658 4.310792380024231 -0.11695936225710407
    vertex 6.874942989386164 4.820208394206717 11.883040637742779
    vertex 6.760537070912155 4.310792380024231 11.883040637742896
  endloop
endfacet
facet normal 0.9756969185994346 -0.21912444645809934 -1.0160603714273484e-12
  outer loop
    vertex 6.874942989386164 4.820208394206717 11.883040637742779
    vertex 6.760537070899658 4.310792380024231 -0.11695936225710407
    vertex 6.874942989373667 4.820208394206717 -0.11695936225722252
  endloop
endfacet
facet normal 0.5349775255102092 -0.8448662895387493 -5.57108926873987e-13
  outer loop
    vertex 6.164396434381621 3.464380476034004 -0.11695936225648368
    vertex 5.723287715559812 3.185066158721392 11.883040637743976
    vertex 5.723287715547316 3.185066158721392 -0.11695936225602122
  endloop
endfacet
facet normal 0.5349775255102092 -0.8448662895387493 -5.57108926873987e-13
  outer loop
    vertex 5.723287715559812 3.185066158721392 11.883040637743976
    vertex 6.164396434381621 3.464380476034004 -0.11695936225648368
    vertex 6.164396434394118 3.464380476034004 11.883040637743516
  endloop
endfacet
facet normal 0.2980811220768006 -0.9545405411303575 -3.10412393274325e-13
  outer loop
    vertex 5.723287715547316 3.185066158721392 -0.11695936225602122
    vertex 5.22491754694616 3.0294365833719312 11.883040637744495
    vertex 5.224917546933663 3.0294365833719312 -0.11695936225550234
  endloop
endfacet
facet normal 0.2980811220768006 -0.9545405411303575 -3.10412393274325e-13
  outer loop
    vertex 5.22491754694616 3.0294365833719312 11.883040637744495
    vertex 5.723287715547316 3.185066158721392 -0.11695936225602122
    vertex 5.723287715559812 3.185066158721392 11.883040637743976
  endloop
endfacet
facet normal -0.29808112207680115 0.9545405411303571 3.104123932743256e-13
  outer loop
    vertex 4.541163728537479 6.970563416628069 11.883040637745209
    vertex 4.04279355991133 6.8149338412786085 -0.11695936225427284
    vertex 4.042793559923827 6.8149338412786085 11.883040637745728
  endloop
endfacet
facet normal -0.29808112207680115 0.9545405411303571 3.104123932743256e-13
  outer loop
    vertex 4.04279355991133 6.8149338412786085 -0.11695936225427284
    vertex 4.541163728537479 6.970563416628069 11.883040637745209
    vertex 4.541163728524983 6.970563416628069 -0.1169593622547917
  endloop
endfacet
facet normal -0.7354160946722575 0.6776157965226351 7.658394077732173e-13
  outer loop
    vertex 3.6016848410770246 6.5356195239659955 -0.116959362253816
    vertex 3.2478984022564927 6.151655273826352 11.883040637746554
    vertex 3.6016848410895212 6.5356195239659955 11.883040637746188
  endloop
endfacet
facet normal -0.7354160946722575 0.6776157965226351 7.658394077732173e-13
  outer loop
    vertex 3.2478984022564927 6.151655273826352 11.883040637746554
    vertex 3.6016848410770246 6.5356195239659955 -0.116959362253816
    vertex 3.247898402243996 6.151655273826352 -0.11695936225344376
  endloop
endfacet
facet normal 0.9991644322967604 0.0408709827762026 -1.0404987090189119e-12
  outer loop
    vertex 6.874942989373667 4.820208394206717 -0.11695936225722252
    vertex 6.853604054369888 5.341876909204339 11.8830406377428
    vertex 6.874942989386164 4.820208394206717 11.883040637742779
  endloop
endfacet
facet normal 0.9991644322967604 0.0408709827762026 -1.0404987090189119e-12
  outer loop
    vertex 6.853604054369888 5.341876909204339 11.8830406377428
    vertex 6.874942989373667 4.820208394206717 -0.11695936225722252
    vertex 6.853604054357391 5.341876909204339 -0.11695936225719995
  endloop
endfacet
facet normal 0.735416094672257 -0.6776157965226358 -7.658394077732167e-13
  outer loop
    vertex 6.164396434381621 3.464380476034004 -0.11695936225648368
    vertex 6.518182873227146 3.848344726173647 11.88304063774315
    vertex 6.164396434394118 3.464380476034004 11.883040637743516
  endloop
endfacet
facet normal 0.735416094672257 -0.6776157965226358 -7.658394077732167e-13
  outer loop
    vertex 6.518182873227146 3.848344726173647 11.88304063774315
    vertex 6.164396434381621 3.464380476034004 -0.11695936225648368
    vertex 6.518182873214649 3.848344726173647 -0.11695936225685027
  endloop
endfacet
facet normal 0.04087098277620333 -0.9991644322967603 -4.256176805375224e-14
  outer loop
    vertex 5.224917546933663 3.0294365833719312 -0.11695936225550234
    vertex 4.703249031948538 3.0080976483556547 11.88304063774504
    vertex 4.703249031936041 3.0080976483556547 -0.1169593622549609
  endloop
endfacet
facet normal 0.04087098277620333 -0.9991644322967603 -4.256176805375224e-14
  outer loop
    vertex 4.703249031948538 3.0080976483556547 11.88304063774504
    vertex 5.224917546933663 3.0294365833719312 -0.11695936225550234
    vertex 5.22491754694616 3.0294365833719312 11.883040637744495
  endloop
endfacet
facet normal -0.677615796522633 -0.7354160946722595 7.056479781530223e-13
  outer loop
    vertex 3.731385363902971 3.364857764514674 -0.11695936225395136
    vertex 3.3474211137758227 3.718644203347701 11.883040637746452
    vertex 3.347421113763326 3.718644203347701 -0.11695936225355091
  endloop
endfacet
facet normal -0.677615796522633 -0.7354160946722595 7.056479781530223e-13
  outer loop
    vertex 3.3474211137758227 3.718644203347701 11.883040637746452
    vertex 3.731385363902971 3.364857764514674 -0.11695936225395136
    vertex 3.7313853639154675 3.364857764514674 11.883040637746053
  endloop
endfacet
facet normal -0.8448662895387504 -0.5349775255102072 8.79817430588415e-13
  outer loop
    vertex 3.0681067964507154 4.159752922182007 -0.11695936225325765
    vertex 3.3474211137758227 3.718644203347701 11.883040637746452
    vertex 3.068106796463212 4.159752922182007 11.883040637746744
  endloop
endfacet
facet normal -0.8448662895387504 -0.5349775255102072 8.79817430588415e-13
  outer loop
    vertex 3.3474211137758227 3.718644203347701 11.883040637746452
    vertex 3.0681067964507154 4.159752922182007 -0.11695936225325765
    vertex 3.347421113763326 3.718644203347701 -0.11695936225355091
  endloop
endfacet
facet normal -0.9545405411303571 -0.29808112207680154 9.940287790962536e-13
  outer loop
    vertex 2.912477221101254 4.658123090795659 -0.11695936225309408
    vertex 3.068106796463212 4.159752922182007 11.883040637746744
    vertex 2.912477221113751 4.658123090795659 11.883040637746904
  endloop
endfacet
facet normal -0.9545405411303571 -0.29808112207680154 9.940287790962536e-13
  outer loop
    vertex 3.068106796463212 4.159752922182007 11.883040637746744
    vertex 2.912477221101254 4.658123090795659 -0.11695936225309408
    vertex 3.0681067964507154 4.159752922182007 -0.11695936225325765
  endloop
endfacet
endsolid WindPointerTipFinal
